<svg xmlns="http://www.w3.org/2000/svg" width="221" height="230" viewBox="0 0 221 230" version="1.1">
	<path d="M -0 115.004 L -0 230.009 110.750 229.754 L 221.500 229.500 221.754 114.750 L 222.008 0 111.004 0 L 0 0 -0 115.004 M 0.483 115.500 C 0.483 178.750, 0.603 204.478, 0.750 172.673 C 0.896 140.868, 0.896 89.118, 0.750 57.673 C 0.603 26.228, 0.483 52.250, 0.483 115.500 M 156.500 59.639 C 155.400 59.923, 149.671 61.695, 143.768 63.578 C 137.866 65.460, 132.054 67, 130.852 67 C 127.480 67, 129.413 68.148, 134.330 69.067 C 136.763 69.522, 140.271 70.513, 142.126 71.271 L 145.500 72.649 138.608 77.574 C 120.506 90.513, 113.402 101.490, 114.199 115.291 L 114.500 120.500 118.917 114 C 125.265 104.659, 136.026 94.420, 147.518 86.787 C 158.373 79.578, 174.241 71.043, 180.538 69.027 C 182.717 68.329, 184.886 67.404, 185.357 66.972 C 186.633 65.802, 182.723 64.054, 177.290 63.367 C 174.656 63.033, 171.467 62.116, 170.205 61.328 C 167.731 59.783, 159.752 58.800, 156.500 59.639 M 57.579 64.873 C 57.327 65.281, 57.284 66.489, 57.484 67.557 C 57.683 68.626, 57.881 71.354, 57.923 73.620 L 58 77.740 76.532 86.014 C 93.905 93.772, 99.541 96.808, 106.250 102.027 C 108.739 103.964, 109 103.999, 109 102.399 C 109 98.962, 104.844 92.113, 100.699 88.719 C 92.690 82.161, 58.559 63.286, 57.579 64.873 M 42.455 77.256 C 42.190 77.946, 42.092 94.227, 42.237 113.435 L 42.500 148.359 49 151.142 C 52.575 152.673, 60 155.686, 65.500 157.837 C 83.564 164.902, 94.817 170.837, 106.750 179.593 L 109 181.244 109 146.137 L 109 111.029 103.250 106.478 C 97.515 101.937, 82.929 94.402, 58.715 83.469 C 51.684 80.294, 45.694 77.315, 45.406 76.848 C 44.631 75.594, 43.007 75.819, 42.455 77.256 M 172 81.311 C 141.875 96.320, 124.271 111.177, 116.262 128.349 C 114.111 132.960, 114 134.373, 114 157.099 C 114 170.245, 114.269 181, 114.598 181 C 114.927 181, 119.089 178.595, 123.848 175.656 C 136.804 167.653, 162.923 155.790, 183.250 148.675 C 184.873 148.107, 185 145.447, 185 112.031 C 185 83.852, 184.728 76.009, 183.750 76.040 C 183.063 76.061, 177.775 78.433, 172 81.311" stroke="none" fill="#000000" fill-rule="evenodd"/>
</svg>