<svg xmlns="http://www.w3.org/2000/svg" width="221" height="230" viewBox="0 0 221 230" version="1.1">
<path d="M 145.500 62.941 C 138.900 65.122, 132.413 66.928, 131.083 66.953 C 127.369 67.025, 129.168 67.983, 136.015 69.581 C 146.055 71.923, 146.076 72.018, 137.839 78.084 C 127.084 86.006, 124.123 88.851, 119.907 95.317 C 115.706 101.759, 113.653 109.155, 114.164 116 L 114.500 120.500 118.917 114 C 125.296 104.613, 136.065 94.387, 147.518 86.839 C 158.580 79.550, 174.532 70.948, 180.577 69.014 C 182.734 68.323, 184.886 67.404, 185.357 66.972 C 186.633 65.802, 182.723 64.054, 177.290 63.367 C 174.656 63.033, 171.447 62.103, 170.161 61.299 C 165.254 58.233, 158.355 58.692, 145.500 62.941 M 57.621 64.804 C 57.362 65.223, 57.401 68.332, 57.708 71.712 L 58.265 77.858 76.785 86.127 C 94.464 94.021, 98.367 96.128, 105.747 101.756 C 108.631 103.956, 109 104.033, 109 102.434 C 109 98.636, 104.679 91.914, 99.672 87.924 C 91.520 81.427, 58.551 63.300, 57.621 64.804 M 42.455 77.256 C 42.190 77.946, 42.092 94.236, 42.237 113.454 L 42.500 148.397 50 151.549 C 54.125 153.282, 61.325 156.176, 66 157.979 C 70.675 159.782, 79.328 163.646, 85.228 166.566 C 94.591 171.198, 98.378 173.500, 107.118 179.872 C 108.951 181.208, 109 180.329, 109 146.137 L 109 111.029 103.250 106.451 C 97.527 101.895, 85.724 95.769, 60 84.005 C 52.575 80.609, 46.072 77.419, 45.550 76.916 C 44.228 75.641, 43.024 75.773, 42.455 77.256 M 172 81.311 C 141.957 96.280, 123.450 111.891, 116.130 128.439 C 114.151 132.914, 114 134.942, 114 157.127 C 114 170.257, 114.269 181, 114.598 181 C 114.927 181, 119.089 178.595, 123.848 175.656 C 136.804 167.653, 162.923 155.790, 183.250 148.675 C 184.873 148.107, 185 145.447, 185 112.031 C 185 83.852, 184.728 76.009, 183.750 76.040 C 183.063 76.061, 177.775 78.433, 172 81.311" stroke="none" fill="#e74c3c" fill-rule="evenodd"/>
</svg>
